<svg width="133" height="96" viewBox="0 0 133 96" fill="none" xmlns="http://www.w3.org/2000/svg">
<rect x="58" y="17" width="31" height="20" fill="#E9E8DF"/>
<path d="M132.715 84.7318C131.837 82.6388 129.246 81.7916 126.956 81.8422C124.668 81.8938 122.417 82.5861 120.131 82.4883C116.162 82.3184 112.742 79.847 109.364 77.7777C105.271 75.2719 100.88 73.2521 96.3152 71.7437C97.7926 65.2614 98.0466 58.3429 97.7546 52.1413C100.172 51.0437 102.59 49.945 105.008 48.8474C106.607 48.1207 108.219 47.3897 109.93 46.979C112.778 46.2943 115.847 46.5426 118.544 47.6745C119.771 48.1895 121.027 48.899 122.345 48.7012C123.963 48.4582 125.11 46.7845 125.073 45.1643C125.035 43.5432 124.021 42.0609 122.707 41.0933C121.394 40.1247 119.808 39.599 118.228 39.169C111.099 37.2287 103.509 37.0029 96.2634 38.4649C95.7858 35.629 95.3418 33.6101 95.167 32.82C94.6732 30.5819 94.151 28.2804 93.5062 26.0229C95.5698 25.7724 97.6334 25.5209 99.6956 25.2704C100.231 25.2048 100.612 24.7221 100.546 24.1922C100.479 23.6622 99.993 23.2849 99.4568 23.3504C97.2825 23.6149 95.1084 23.8793 92.934 24.1438C92.8232 23.8019 92.6984 23.4676 92.5801 23.129C94.5622 22.5173 96.5444 21.9056 98.5263 21.294C99.0408 21.1349 99.3285 20.5931 99.1678 20.0824C99.0072 19.5729 98.4601 19.288 97.9445 19.4471C95.9277 20.0695 93.9107 20.692 91.8941 21.3144C91.1136 19.4009 90.1888 17.5755 89.0241 15.9318C87.0213 10.8524 85.7253 5.42468 82.3798 1.1269C81.8772 0.480811 81.1206 -0.198575 80.3369 0.0540577C79.9895 0.166933 79.7268 0.446438 79.4934 0.725931C77.7284 2.8426 76.8144 5.47202 76.1457 8.16484C72.3879 7.54242 68.2249 7.80901 64.5504 9.62791C62.5976 7.57468 60.4049 5.74512 58.0211 4.20016C57.3297 3.75296 56.5492 3.31113 55.7307 3.41865C54.7723 3.5455 54.0732 4.39368 53.6748 5.26655C52.9334 6.89411 52.8987 8.74094 52.9334 10.5264C53.0387 15.8573 53.6575 21.1786 54.7798 26.3944L54.8678 26.2869C54.8743 26.7857 54.9025 27.2791 54.9394 27.7704C52.2745 28.0725 49.6095 28.3756 46.9457 28.6788C46.4095 28.7401 46.0252 29.2195 46.0871 29.7495C46.149 30.2805 46.6331 30.6611 47.1683 30.5998C49.8266 30.2977 52.4851 29.9956 55.1433 29.6936C55.1965 30.0902 55.2541 30.4858 55.3148 30.8814C53.0831 31.6963 50.8514 32.5122 48.6194 33.327C48.1136 33.5119 47.8542 34.0677 48.0409 34.5687C48.2276 35.0696 48.7888 35.3265 49.2946 35.1416C51.407 34.3698 53.5193 33.5979 55.6307 32.8271C56.0193 35.1524 56.3916 37.5066 56.333 40.0145C53.8939 42.1613 49.7874 45.0584 44.0343 46.3829C40.0602 47.2966 36.6095 47.159 34.2332 46.8559C34.1583 46.6818 32.5117 43.0342 28.7353 42.5947C26.7238 42.3615 23.8895 43.0129 22.7596 45.1984C21.4733 47.6848 23.26 50.4778 23.7506 51.2453C25.0597 53.291 26.9094 54.3306 27.9059 54.7175C36.0266 57.8768 43.0779 58.2189 43.0779 58.2189C43.6652 58.2189 44.2763 58.2232 44.907 58.2307C43.5197 59.8056 42.1585 61.8352 40.9124 64.7752C40.8896 64.8279 40.8624 64.8934 40.8396 64.9493C36.5096 64.7472 32.2132 63.826 28.2055 62.1877C23.8157 60.3946 19.6844 57.6846 16.9803 53.8178C14.2774 49.951 13.181 44.8158 14.8581 40.4159C15.5865 38.5045 16.8251 36.5105 16.1738 34.5723C15.4107 32.303 12.2311 31.5806 10.0906 32.6911C7.94997 33.8016 6.74397 36.1311 6.09039 38.4348C4.17666 45.176 6.01657 52.6634 10.1664 58.3341C14.3153 64.0046 20.5752 67.9499 27.2848 70.1633C30.8854 71.3512 34.6163 72.0574 38.3939 72.4434C38.2897 72.954 38.1963 73.4743 38.1214 74.0075C34.3266 76.0425 29.2746 76.7262 21.6186 77.7508C17.0443 78.3635 15.7071 78.5151 12.2388 79.2429C7.78619 80.177 3.69153 82.9603 0.996312 86.8851C0.599018 87.4635 0.224541 88.0806 0.072565 88.7804C-0.425686 91.0733 1.72793 93.1954 3.89795 93.5113C6.06785 93.8263 8.20964 92.9437 10.3327 92.3643C17.9334 90.2928 26.6738 92.8459 36.3532 94.5637C41.0044 95.3893 47.2863 95.8935 55.1647 94.8561C59.829 95.8946 63.9615 95.9634 65.2989 95.9849C67.2181 96.0161 70.4974 96.0687 74.2488 95.3367C75.8326 95.5904 77.5824 95.1023 79.1705 94.6239C83.9326 93.1866 88.8304 91.9751 93.8073 91.9945C98.7234 92.0138 103.552 93.2286 108.449 93.6468C113.953 94.1176 119.509 93.5726 124.933 92.5298C127.019 92.1289 129.171 91.6172 130.836 90.3089C132.497 89.0006 133.532 86.6754 132.715 84.7317L132.715 84.7318ZM68.8956 24.8485C67.3694 26.3147 65.2887 27.0694 63.212 27.0715C61.9908 27.0715 60.7642 26.8082 59.6506 26.2513C59.1697 26.0105 58.9765 25.4289 59.2197 24.9516C59.4628 24.4754 60.0501 24.2841 60.532 24.5249C61.3483 24.9344 62.2742 25.1376 63.2121 25.1376C64.81 25.1398 66.4209 24.541 67.5335 23.4628C67.92 23.0897 68.5387 23.0984 68.9143 23.4811C69.291 23.8637 69.2821 24.4754 68.8956 24.8485ZM79.0329 31.1706C78.4467 31.3544 77.7542 31.5544 76.9922 31.5576C76.4494 31.5608 75.8361 31.4243 75.2999 31.0577C75.2739 31.1072 75.2565 31.1577 75.2283 31.2061V31.2071C74.9569 31.6673 74.5737 32.0263 74.1352 32.2832C73.6955 32.538 73.193 32.696 72.6556 32.6971C72.1791 32.6993 71.6635 32.5606 71.2315 32.2391C70.7994 31.9199 70.7094 31.3136 71.0317 30.8857C71.3541 30.4579 71.9664 30.3686 72.3984 30.6879C72.4646 30.7352 72.533 30.7599 72.6557 30.7621C72.7881 30.7632 72.9759 30.7159 73.1452 30.6159C73.3156 30.5181 73.4611 30.3729 73.5392 30.2364V30.2353C73.7075 29.9494 73.79 29.5893 73.79 29.155C73.79 28.8024 73.7335 28.4111 73.6434 28.023C73.6413 28.0133 73.6445 28.0036 73.6424 27.994C73.6196 27.8779 73.6131 27.7596 73.6326 27.6446C73.676 27.393 73.8182 27.1684 74.0277 27.02C74.1319 26.9469 74.2503 26.8921 74.3762 26.8642C74.5021 26.8351 74.6323 26.833 74.7583 26.8545C75.0123 26.8975 75.2391 27.0383 75.3889 27.2458C75.453 27.335 75.4942 27.4382 75.5257 27.5446C75.53 27.5608 75.5431 27.5737 75.5463 27.5909C75.6484 28.0327 75.7971 28.4648 75.9881 28.8766V28.8776C76.1162 29.1614 76.2475 29.356 76.3496 29.4399C76.4896 29.557 76.6633 29.6205 76.9911 29.6248C77.3786 29.628 77.916 29.499 78.4327 29.3313C78.9461 29.1668 79.4964 29.4463 79.6614 29.9548C79.8275 30.4622 79.5464 31.0072 79.0329 31.1706ZM86.4903 20.7744C85.2582 22.5772 83.1392 23.5641 81.0184 23.5693C80.15 23.5693 79.274 23.3995 78.4588 23.0329C77.9682 22.8125 77.75 22.2385 77.9736 21.7526C78.1972 21.2667 78.7758 21.0506 79.2664 21.2721C79.807 21.515 80.4062 21.6354 81.0184 21.6354C82.524 21.6408 84.0677 20.8937 84.8685 19.6972C85.1692 19.2532 85.776 19.135 86.2232 19.4327C86.6716 19.7305 86.791 20.3315 86.4903 20.7744Z" fill="black"/>
</svg>
