<svg width="30" height="30" viewBox="0 0 87 87" fill="none" xmlns="http://www.w3.org/2000/svg">
<g clip-path="url(#clip0_219_1158)">
<path d="M48.1559 31.2695L48.8965 8.11554C45.8741 7.67932 42.739 6.13788 39.5462 6.46351C36.3534 6.78913 33.594 8.93171 30.6117 10.1044C27.6168 11.1543 24.1659 11.3822 21.6271 13.2541C19.0883 15.1261 17.6822 18.3714 15.6972 20.8073C13.7122 23.2431 10.8176 25.2754 9.49667 28.1398C8.17579 31.0042 8.64927 34.4301 8.10276 37.5878C7.67906 40.733 6.13763 43.868 6.46325 47.0609C6.78887 50.2537 8.93146 53.013 10.1042 55.9954C11.1541 58.9902 11.3819 62.4412 13.2539 64.98C15.1258 67.5188 18.3712 68.9249 20.807 70.9099C23.2428 72.8948 25.1523 75.802 28.1396 77.1104C31.004 78.4313 34.4299 77.9578 37.5876 78.5043C40.7327 78.928 43.8678 80.4694 47.0606 80.1438C50.2534 79.8182 53.0128 77.6756 55.9951 76.5029C58.9775 75.3302 62.4284 75.1023 64.9672 73.2304C67.506 71.3585 68.9121 68.1131 70.8971 65.6773C72.8821 63.2414 75.7893 61.3319 77.0976 58.3447C78.4185 55.4803 77.945 52.0544 78.4915 48.8967C78.9278 45.8744 80.4692 42.7393 80.1436 39.5465C79.8179 36.3537 76.5503 29.8626 76.5503 29.8626L48.1559 31.2695Z" fill="#DDA85F"/>
<path d="M75.7486 28.0845C74.5582 28.5782 72.8265 28.6307 70.9093 28.0818C68.2303 27.3624 66.421 25.4376 65.6793 23.0317C64.4889 23.5253 61.5041 23.4575 59.414 22.4299C56.279 20.8884 55.1389 15.7934 55.1389 15.7934C51.7231 15.1492 48.8664 11.47 48.8966 8.11685C46.1199 7.65557 42.694 8.12904 39.7468 8.42962C36.7995 8.73019 34.2733 10.7249 31.6468 11.7373C28.8975 12.7621 25.6922 12.9649 23.3865 14.689C21.0808 16.4131 19.7724 19.4003 18.008 21.5655C16.1333 23.866 13.4591 25.6277 12.3588 28.2215C11.1357 30.8278 11.5841 34.0081 11.1354 36.9076C10.6741 39.6844 9.23041 42.5613 9.53099 45.5085C9.83156 48.4557 11.8263 50.982 12.8386 53.6085C13.8635 56.3578 14.0663 59.5631 15.7904 61.8688C17.5145 64.1745 20.5017 65.4829 22.6669 67.2473C24.9674 69.122 26.7291 71.7961 29.3228 72.8965C31.9291 74.1196 35.1094 73.6712 38.009 74.1199C40.7857 74.5812 43.6627 76.0249 46.6099 75.7243C49.5571 75.4237 52.0834 73.429 54.7099 72.4167C57.4591 71.3918 60.6645 71.189 62.9702 69.4649C65.2759 67.7408 66.5843 64.7536 68.3487 62.5884C70.2234 60.2879 72.8975 58.5262 73.9978 55.9324C75.221 53.3261 74.7726 50.1459 75.2213 47.2463C75.6826 44.4695 78.4044 41.9586 78.4722 38.9738C78.9662 34.0844 75.9591 28.9316 75.7486 28.0845Z" fill="#F2CB7D"/>
<path d="M75.7486 28.0845C74.5582 28.5782 72.8265 28.6307 70.9093 28.0818C68.2303 27.3624 66.421 25.4376 65.6793 23.0317C64.4889 23.5253 61.5041 23.4575 59.414 22.4299C56.279 20.8884 55.1389 15.7934 55.1389 15.7934C51.7231 15.1492 48.8664 11.47 48.8966 8.11685C46.1199 7.65557 42.694 8.12904 39.7468 8.42962C36.7995 8.73019 34.2733 10.7249 31.6468 11.7373C28.8975 12.7621 25.6922 12.9649 23.3865 14.689C21.0808 16.4131 19.7724 19.4003 18.008 21.5655C16.1333 23.866 13.4591 25.6277 12.3588 28.2215C11.1357 30.8278 11.5841 34.0081 11.1354 36.9076C10.6741 39.6844 9.23041 42.5613 9.53099 45.5085C9.83156 48.4557 11.8263 50.982 12.8386 53.6085C13.8635 56.3578 14.0663 59.5631 15.7904 61.8688C17.5145 64.1745 20.5017 65.4829 22.6669 67.2473C24.9674 69.122 26.7291 71.7961 29.3228 72.8965C31.9291 74.1196 35.1094 73.6712 38.009 74.1199C40.7857 74.5812 43.6627 76.0249 46.6099 75.7243C49.5571 75.4237 52.0834 73.429 54.7099 72.4167C57.4591 71.3918 60.6645 71.189 62.9702 69.4649C65.2759 67.7408 66.5843 64.7536 68.3487 62.5884C70.2234 60.2879 72.8975 58.5262 73.9978 55.9324C75.221 53.3261 74.7726 50.1459 75.2213 47.2463C75.6826 44.4695 78.4044 41.9586 78.4722 38.9738C78.9662 34.0844 75.9591 28.9316 75.7486 28.0845Z" fill="#F2CB7D"/>
<path d="M62.8759 15.0039L61.332 16.8985L59.5602 15.3421L60.9938 13.5828L62.8759 15.0039ZM70.7522 22.8861L70.103 23.8208L69.1558 23.0489L69.9277 22.1016L70.7522 22.8861ZM64.036 17.8635L63.2641 18.8107L62.3168 18.0388L63.0888 17.0915L64.036 17.8635ZM55.6584 11.1491L54.8865 12.0964L53.9392 11.3244L54.7112 10.3772L55.6584 11.1491ZM72.7845 25.7808L72.0125 26.728L71.0653 25.9561L71.8372 25.0088L72.7845 25.7808ZM73.2082 22.6356L72.4362 23.5829L71.489 22.8109L72.2609 21.8637L73.2082 22.6356Z" fill="#DDA85F"/>
<path d="M17.0701 31.8338C16.055 34.0467 18.2852 37.6656 20.854 38.5204C24.5655 39.6308 26.6781 39.6635 28.5003 35.6312C29.0993 34.2053 29.7185 30.5439 29.2625 29.7218C28.646 28.5439 26.3079 26.3008 24.9571 26.4386C21.1628 26.9496 17.7794 30.2726 17.0701 31.8338Z" fill="#6D4934"/>
<path d="M17.6848 31.7731C16.9755 33.3343 19.6368 37.5297 22.5464 36.8607C26.5487 35.9562 25.3287 27.6434 23.6095 27.8187C20.6623 28.1193 18.1861 30.6052 17.6848 31.7731Z" fill="#A37F6A"/>
<path d="M60.4024 50.3691C62.0715 49.7025 62.9864 46.5073 62.0618 44.7404C60.6685 42.0287 59.4381 40.9134 56.3329 42.0986C55.2653 42.5798 52.8243 44.1936 52.6413 44.8326C52.3731 45.8526 52.3779 48.3337 53.1899 48.9953C55.4904 50.87 59.212 50.8627 60.4024 50.3691Z" fill="#6D4934"/>
<path d="M58.3828 47.5986C59.696 47.0925 61.3578 42.7044 59.1223 42.6842C55.2529 42.4584 52.4936 44.601 53.0749 46.651C53.6562 48.7011 57.4254 47.9444 58.3828 47.5986Z" fill="#A37F6A"/>
<path d="M36.1506 59.5429C35.6319 58.1068 32.8176 57.2772 31.1735 58.1893C28.8177 59.4222 27.8002 60.3945 28.9478 63.1313C29.2936 64.0886 30.7471 66.1738 31.3736 66.234C32.2708 66.5147 34.3709 66.4246 34.9223 65.748C36.589 63.8409 36.5089 60.623 36.1506 59.5429Z" fill="#6D4934"/>
<path d="M33.9497 58.651C33.5914 57.5708 28.5966 59.6932 29.2882 61.6079C30.6087 64.8233 30.6588 65.3145 31.6287 65.0916C33.4206 64.4125 34.1602 59.498 33.9497 58.651Z" fill="#A37F6A"/>
<path d="M65.9444 32.929C64.5084 33.4477 63.6787 36.262 64.5909 37.9061C65.8238 40.2619 68.1945 40.3924 70.6356 38.7786C72.7333 37.4479 72.4553 33.5058 71.7662 32.8316C69.7363 31.1774 67.0246 32.5707 65.9444 32.929Z" fill="#6D4934"/>
<path d="M65.4684 34.3441C64.8192 35.2788 64.5559 38.7798 66.3478 38.1008C69.5632 36.7802 71.5583 33.2267 70.0346 32.8857C68.13 32.4596 66.2278 33.274 65.4684 34.3441Z" fill="#A37F6A"/>
<path d="M29.9423 24.9529L32.1258 22.2735L34.8052 24.457L32.6217 27.1364L29.9423 24.9529Z" fill="#6D4934"/>
<path d="M22.2523 47.2907L24.4346 44.6114L27.1139 46.7937L24.9316 49.473L22.2523 47.2907ZM48.2213 58.6978L50.4048 56.0184L53.0842 58.2018L50.9007 60.8813L48.2213 58.6978ZM44.2632 52.2499L47.2264 48.6137L50.8625 51.5769L47.8994 55.213L44.2632 52.2499ZM31.5574 16.9899L34.5205 13.3537L38.1567 16.3169L35.1936 19.953L31.5574 16.9899Z" fill="#DDA85F"/>
<path d="M56.3028 59.7806L58.4862 57.1012L61.1657 59.2846L58.9822 61.9641L56.3028 59.7806ZM64.6761 45.1143L66.8596 42.4348L69.539 44.6183L67.3556 47.2977L64.6761 45.1143ZM54.4311 33.0342L55.5229 31.6945L56.8626 32.7862L55.7708 34.1259L54.4311 33.0342ZM21.6483 53.2881L22.74 51.9484L24.0797 53.0402L22.988 54.3799L21.6483 53.2881Z" fill="#6D4934"/>
</g>
<defs>
<clipPath id="clip0_219_1158">
<rect width="79" height="79" fill="white" transform="translate(0 8.01562) rotate(-5.82326)"/>
</clipPath>
</defs>
</svg>
