<svg width="21" height="21" viewBox="0 0 21 21" fill="none" xmlns="http://www.w3.org/2000/svg">
<g clip-path="url(#clip0_13_461)">
<path d="M19.9828 0.65625C20.5734 5.05312 20.475 8.59687 19.589 10.8609L11.4515 4.82344C13.0594 3.15 16.3406 1.14844 19.9828 0.65625Z" fill="black"/>
<path d="M18.9328 10.5656L15.5859 6.20156C15.5859 6.20156 16.2094 3.80625 19.3922 2.13281C20.3437 5.93906 18.9328 10.5656 18.9328 10.5656Z" fill="#F7A4A4"/>
<path d="M17.6531 9.5812L15.5859 6.89058C15.5859 6.89058 16.4391 5.24995 18.4078 4.19995C17.2594 6.66089 17.6531 9.5812 17.6531 9.5812Z" fill="#F78D8D"/>
<path d="M1.01717 0.65625C0.426547 5.05312 0.524984 8.59687 1.41092 10.8609L9.54842 4.79063C7.94061 3.15 4.65936 1.14844 1.01717 0.65625Z" fill="black"/>
<path d="M2.06714 10.5656L5.44683 6.20156C5.44683 6.20156 4.82339 3.80625 1.64058 2.13281C0.656201 5.93906 2.06714 10.5656 2.06714 10.5656Z" fill="#F7A4A4"/>
<path d="M3.34687 9.5812L5.44688 6.89058C5.44688 6.89058 4.59375 5.24995 2.625 4.19995C3.74063 6.66089 3.34687 9.5812 3.34687 9.5812Z" fill="#F78D8D"/>
<path d="M19.0969 16.6687C19.3594 16.3734 19.5562 16.1437 19.6547 15.9469C20.1797 15.0938 20.3438 14.2078 20.3438 14.2078L19.6875 14.3391C19.6875 14.3391 20.4422 13.5188 20.2453 11.7797L19.5891 12.4688C19.5891 12.4688 20.2125 10.6969 19.6875 9.05625L18.9656 9.58125C18.9656 9.58125 19.1953 8.925 18.9984 8.46562L18.7031 8.69531C18.7031 8.69531 19.2609 7.15312 18.7688 6.52969C18.4734 7.44844 18.1453 7.44844 18.1453 7.44844C18.1453 7.44844 18.5391 6.75938 18.2437 6.46406C17.9156 6.98906 17.6531 6.66094 17.6531 6.49687C17.6859 6.3 17.5875 6.00469 18.5391 5.84062C17.7844 5.38125 16.8656 5.70937 16.8656 5.70937C16.8656 5.70937 16.8984 5.21719 17.5547 5.25C16.9312 4.725 16.0781 5.05312 16.0781 5.05312C14.7328 4.03594 12.9281 3.44531 10.4672 3.44531C8.03906 3.44531 6.23438 4.03594 4.85625 5.05312C4.85625 5.05312 4.00312 4.75781 3.37969 5.25C4.03594 5.21719 4.06875 5.70937 4.06875 5.70937C4.06875 5.70937 3.18281 5.38125 2.39531 5.84062C3.34688 5.97187 3.28125 6.26719 3.28125 6.49687C3.28125 6.66094 3.01875 6.98906 2.69062 6.46406C2.3625 6.75938 2.78906 7.44844 2.78906 7.44844C2.78906 7.44844 2.46094 7.44844 2.16562 6.52969C1.67344 7.18594 2.23125 8.69531 2.23125 8.69531L1.93594 8.46562C1.73906 8.925 1.96875 9.58125 1.96875 9.58125L1.3125 9.05625C0.754687 10.6969 1.41094 12.4688 1.41094 12.4688L0.7875 11.7797C0.557813 13.5188 1.3125 14.3391 1.3125 14.3391L0.65625 14.2078C0.65625 14.2078 0.820312 15.0938 1.34531 15.9469C1.41094 16.1109 1.60781 16.3734 1.90313 16.6687L1.93594 16.7016C3.28125 18.0469 6.59531 20.3438 10.5 20.3438C14.4047 20.3438 17.7188 18.0469 19.0641 16.7016C19.0641 16.6688 19.0969 16.6687 19.0969 16.6687Z" fill="black"/>
<path d="M12.3704 3.54385C11.7797 3.44541 11.1563 3.4126 10.5 3.4126C9.8438 3.4126 9.22036 3.44541 8.62974 3.54385C8.85942 4.82354 9.54849 5.70947 10.5 7.3501C11.4844 5.67666 12.1407 4.79072 12.3704 3.54385ZM15.3563 4.52822C14.7329 4.16729 14.011 3.90479 13.2235 3.70791C13.4204 4.4626 13.8469 4.9876 14.4047 5.97197C14.8313 5.28291 15.1266 5.08604 15.3563 4.52822ZM7.77661 3.70791C6.9563 3.90479 6.26724 4.16729 5.6438 4.52822C5.87349 5.11885 6.20161 5.28291 6.59536 5.97197C7.18599 4.95479 7.57974 4.42979 7.77661 3.70791Z" fill="black"/>
<path d="M11.8125 12.7312C11.55 12.4359 10.7297 12.4031 10.5 12.4031C10.2704 12.4031 9.45004 12.4359 9.18754 12.7312C8.99067 12.9609 9.15473 13.4859 9.64692 13.9781C9.97504 14.2734 10.2704 14.3718 10.5 14.3718C10.7297 14.3718 11.0579 14.2734 11.3532 13.9781C11.8782 13.4859 12.0094 12.9281 11.8125 12.7312Z" fill="#F78D8D"/>
<path d="M7.97344 10.1062C7.97344 10.1062 7.80938 8.59687 6.49688 8.1375C5.02032 7.57969 4.00313 8.925 3.70782 9.67969C3.31407 10.7953 3.80625 12.0094 3.97032 12.3047C4.06875 12.5016 5.18438 13.3547 7.64532 12.5344C7.64532 12.5344 8.26875 11.2875 7.97344 10.1062Z" fill="white"/>
<path d="M7.97342 10.1063C7.84217 9.58128 7.61248 9.1219 7.21873 8.76097C7.05467 8.5969 6.82498 8.43284 6.5953 8.36722C6.49686 8.3344 6.36561 8.26878 6.23436 8.26878C6.16873 8.23597 6.03748 8.20315 5.90623 8.20315C5.41405 8.20315 4.98748 8.40003 4.62655 8.72815C4.26561 9.05628 4.00311 9.48284 3.87186 9.94222C3.74061 10.4016 3.77342 10.9266 3.87186 11.386C3.93748 11.6157 4.00311 11.8782 4.10155 12.1078L4.13436 12.1735L4.16717 12.2063C4.19998 12.2391 4.2328 12.2719 4.29842 12.3047C4.39686 12.3703 4.4953 12.436 4.59373 12.4688C5.05311 12.6657 5.5453 12.7313 6.0703 12.7313C6.5953 12.7313 7.1203 12.6328 7.6453 12.5016C7.15311 12.7313 6.62811 12.8625 6.10311 12.961C5.57811 13.0266 4.98748 13.0266 4.46248 12.8297C4.33123 12.7969 4.19998 12.7313 4.06873 12.6328C4.00311 12.6 3.93748 12.5344 3.87186 12.5016C3.83905 12.5016 3.83905 12.4688 3.80623 12.436L3.77342 12.4032L3.74061 12.3703L3.67498 12.2719C3.54373 12.0094 3.4453 11.7469 3.37967 11.4844C3.24842 10.9594 3.21561 10.3688 3.34686 9.81097C3.51092 9.25315 3.83905 8.76097 4.26561 8.36722C4.69217 8.00628 5.2828 7.74378 5.87342 7.8094C6.00467 7.84222 6.16873 7.84222 6.29998 7.90784C6.43123 7.94065 6.56248 8.00628 6.69373 8.0719C6.95623 8.20315 7.15311 8.40003 7.34998 8.5969C7.74373 9.05628 7.94061 9.58128 7.97342 10.1063Z" fill="black"/>
<path d="M13.0266 10.1062C13.0266 10.1062 13.1906 8.59687 14.5031 8.1375C15.9797 7.57969 16.9969 8.925 17.2922 9.67969C17.6859 10.7953 17.1937 12.0094 17.0297 12.3047C16.9312 12.5016 15.8156 13.3547 13.3547 12.5344C13.3547 12.5344 12.7312 11.2875 13.0266 10.1062Z" fill="white"/>
<path d="M13.0266 10.1063C13.0594 9.58128 13.2563 9.05628 13.5844 8.5969C13.7485 8.36722 13.9782 8.20315 14.2407 8.0719C14.3719 8.00628 14.5032 7.94065 14.6344 7.90784C14.7657 7.87503 14.9297 7.84222 15.061 7.8094C15.6516 7.74378 16.2422 8.00628 16.6688 8.36722C17.0954 8.76097 17.4235 9.22034 17.5875 9.81097C17.7188 10.3688 17.686 10.9594 17.5547 11.5172C17.4891 11.7797 17.3907 12.0422 17.2594 12.3047L17.1938 12.4032L17.161 12.436V12.4688L17.0954 12.5344C17.0297 12.6 16.9641 12.6328 16.8985 12.6657L16.5047 12.8625C15.9469 13.0594 15.3891 13.0594 14.8641 12.9938C14.3391 12.8953 13.8141 12.7641 13.3219 12.5344C13.8469 12.6328 14.3719 12.7313 14.8969 12.7641C15.4219 12.7641 15.9469 12.6985 16.3735 12.5016C16.4719 12.4688 16.6032 12.4032 16.6688 12.3375C16.7016 12.3047 16.7672 12.2719 16.8 12.2391L16.8329 12.2063L16.8657 12.1407C16.9641 11.911 17.0297 11.6813 17.0954 11.4188C17.1938 10.9266 17.2266 10.4344 17.0954 9.97503C16.9641 9.51565 16.7016 9.08909 16.3407 8.76097C15.9797 8.43284 15.5532 8.23597 15.061 8.23597C14.9297 8.23597 14.8313 8.26878 14.7 8.26878C14.5688 8.30159 14.4704 8.3344 14.3391 8.36722C14.1094 8.46565 13.9125 8.5969 13.7157 8.76097C13.3875 9.1219 13.1579 9.61409 13.0266 10.1063Z" fill="black"/>
<path d="M14.7656 12.3047C15.6717 12.3047 16.4062 11.5702 16.4062 10.6641C16.4062 9.75797 15.6717 9.02344 14.7656 9.02344C13.8595 9.02344 13.125 9.75797 13.125 10.6641C13.125 11.5702 13.8595 12.3047 14.7656 12.3047Z" fill="#4C5359"/>
<path d="M6.23438 12.3047C7.14047 12.3047 7.875 11.5702 7.875 10.6641C7.875 9.75797 7.14047 9.02344 6.23438 9.02344C5.32828 9.02344 4.59375 9.75797 4.59375 10.6641C4.59375 11.5702 5.32828 12.3047 6.23438 12.3047Z" fill="#4C5359"/>
<path d="M6.23433 12.6328C6.63301 12.6328 6.9562 12.2655 6.9562 11.8125C6.9562 11.3595 6.63301 10.9922 6.23433 10.9922C5.83565 10.9922 5.51245 11.3595 5.51245 11.8125C5.51245 12.2655 5.83565 12.6328 6.23433 12.6328Z" fill="white"/>
<path d="M5.02031 10.8938C5.2559 10.8938 5.44688 10.6734 5.44688 10.4016C5.44688 10.1298 5.2559 9.90942 5.02031 9.90942C4.78473 9.90942 4.59375 10.1298 4.59375 10.4016C4.59375 10.6734 4.78473 10.8938 5.02031 10.8938Z" fill="white"/>
<path d="M14.7656 12.6328C15.1643 12.6328 15.4875 12.2655 15.4875 11.8125C15.4875 11.3595 15.1643 10.9922 14.7656 10.9922C14.3669 10.9922 14.0437 11.3595 14.0437 11.8125C14.0437 12.2655 14.3669 12.6328 14.7656 12.6328Z" fill="white"/>
<path d="M13.5516 10.8938C13.7871 10.8938 13.9781 10.6734 13.9781 10.4016C13.9781 10.1298 13.7871 9.90942 13.5516 9.90942C13.316 9.90942 13.125 10.1298 13.125 10.4016C13.125 10.6734 13.316 10.8938 13.5516 10.8938Z" fill="white"/>
<path d="M13.3219 16.1765C11.55 15.3562 9.45 15.3562 7.67813 16.1765C7.25157 16.3734 7.77657 17.5546 8.23594 17.325C9.41719 16.7671 11.1563 16.5703 12.7969 17.325C13.2234 17.5218 13.7813 16.4062 13.3219 16.1765Z" fill="#4C5359"/>
<path d="M15.4219 12.1406C13.8469 14.2734 12.9609 16.2422 12.9609 17.85C12.9609 19.2281 14.0766 20.3438 15.4219 20.3438C16.7672 20.3438 17.8828 19.2281 17.8828 17.85C17.8828 16.2422 16.9641 14.2406 15.4219 12.1406Z" fill="#65B1EF"/>
</g>
<defs>
<clipPath id="clip0_13_461">
<rect width="21" height="21" fill="white"/>
</clipPath>
</defs>
</svg>
