<svg width="20" height="19" viewBox="0 0 20 19" fill="none" xmlns="http://www.w3.org/2000/svg">
<path d="M18.6627 0C19.2327 4.24333 19.1377 7.66333 18.2827 9.84833L10.4293 4.02167C11.981 2.40667 15.1477 0.475 18.6627 0Z" fill="black"/>
<path d="M17.6493 9.56338L14.4193 5.35172C14.4193 5.35172 15.0209 3.04005 18.0926 1.42505C19.0109 5.09838 17.6493 9.56338 17.6493 9.56338Z" fill="#F7A4A4"/>
<path d="M16.4143 8.61326L14.4193 6.01659C14.4193 6.01659 15.2426 4.43326 17.1426 3.41992C16.0343 5.79492 16.4143 8.61326 16.4143 8.61326Z" fill="#F78D8D"/>
<path d="M0.359274 0C-0.210726 4.24333 -0.115726 7.66333 0.739274 9.84833L8.59261 3.99C7.04094 2.40667 3.87427 0.475 0.359274 0Z" fill="black"/>
<path d="M1.37264 9.56338L4.6343 5.35172C4.6343 5.35172 4.03264 3.04005 0.960971 1.42505C0.0109708 5.09838 1.37264 9.56338 1.37264 9.56338Z" fill="#F7A4A4"/>
<path d="M2.60756 8.61326L4.63422 6.01659C4.63422 6.01659 3.81089 4.43326 1.91089 3.41992C2.98756 5.79492 2.60756 8.61326 2.60756 8.61326Z" fill="#F78D8D"/>
<path d="M17.8077 15.4536C18.061 15.1686 18.251 14.9469 18.346 14.7569C18.8527 13.9336 19.011 13.0786 19.011 13.0786L18.3777 13.2052C18.3777 13.2052 19.106 12.4136 18.916 10.7352L18.2827 11.4002C18.2827 11.4002 18.8843 9.69023 18.3777 8.10689L17.681 8.61356C17.681 8.61356 17.9027 7.98023 17.7127 7.53689L17.4277 7.75856C17.4277 7.75856 17.966 6.27023 17.491 5.66856C17.206 6.55523 16.8893 6.55523 16.8893 6.55523C16.8893 6.55523 17.2693 5.89023 16.9843 5.60523C16.6677 6.1119 16.4143 5.79523 16.4143 5.63689C16.446 5.44689 16.351 5.16189 17.2693 5.00356C16.541 4.56023 15.6543 4.87689 15.6543 4.87689C15.6543 4.87689 15.686 4.40189 16.3193 4.43356C15.7177 3.92689 14.8943 4.24356 14.8943 4.24356C13.596 3.26189 11.8543 2.69189 9.47932 2.69189C7.13599 2.69189 5.39432 3.26189 4.06432 4.24356C4.06432 4.24356 3.24099 3.95856 2.63932 4.43356C3.27265 4.40189 3.30432 4.87689 3.30432 4.87689C3.30432 4.87689 2.44932 4.56023 1.68932 5.00356C2.60765 5.13023 2.54432 5.41523 2.54432 5.63689C2.54432 5.79523 2.29099 6.1119 1.97432 5.60523C1.65765 5.89023 2.06932 6.55523 2.06932 6.55523C2.06932 6.55523 1.75265 6.55523 1.46765 5.66856C0.992653 6.30189 1.53099 7.75856 1.53099 7.75856L1.24599 7.53689C1.05599 7.98023 1.27765 8.61356 1.27765 8.61356L0.64432 8.10689C0.105986 9.69023 0.73932 11.4002 0.73932 11.4002L0.137653 10.7352C-0.0840136 12.4136 0.64432 13.2052 0.64432 13.2052L0.0109863 13.0786C0.0109863 13.0786 0.16932 13.9336 0.675986 14.7569C0.73932 14.9152 0.92932 15.1686 1.21432 15.4536L1.24599 15.4852C2.54432 16.7836 5.74265 19.0002 9.51099 19.0002C13.2793 19.0002 16.4777 16.7836 17.776 15.4852C17.776 15.4536 17.8077 15.4536 17.8077 15.4536Z" fill="black"/>
<path d="M11.3159 2.78682C10.7459 2.69182 10.1443 2.66016 9.51095 2.66016C8.87761 2.66016 8.27595 2.69182 7.70595 2.78682C7.92761 4.02182 8.59261 4.87682 9.51095 6.46016C10.4609 4.84516 11.0943 3.99016 11.3159 2.78682ZM14.1976 3.73682C13.5959 3.38849 12.8993 3.13516 12.1393 2.94516C12.3293 3.67349 12.7409 4.18016 13.2793 5.13016C13.6909 4.46516 13.9759 4.27516 14.1976 3.73682ZM6.88261 2.94516C6.09095 3.13516 5.42595 3.38849 4.82428 3.73682C5.04595 4.30682 5.36261 4.46516 5.74261 5.13016C6.31261 4.14849 6.69261 3.64182 6.88261 2.94516Z" fill="black"/>
<path d="M10.7776 10.7669C10.5242 10.4819 9.73257 10.4503 9.51091 10.4503C9.28924 10.4503 8.49757 10.4819 8.24424 10.7669C8.05424 10.9886 8.21257 11.4953 8.68757 11.9703C9.00424 12.2553 9.28924 12.3503 9.51091 12.3503C9.73257 12.3503 10.0492 12.2553 10.3342 11.9703C10.8409 11.5269 10.9676 10.9886 10.7776 10.7669ZM7.92757 9.78526C7.32591 8.17026 6.43924 7.34692 5.55257 7.34692C4.6659 7.34692 3.77924 8.17026 3.17757 9.78526C3.11424 9.94359 3.4309 10.2286 3.58924 10.0703C4.15924 9.46859 4.8559 9.21526 5.55257 9.21526C6.24924 9.21526 6.9459 9.46859 7.5159 10.0703C7.67424 10.2603 7.99091 9.94359 7.92757 9.78526ZM15.8126 9.78526C15.2109 8.17026 14.3242 7.34692 13.4376 7.34692C12.5509 7.34692 11.6642 8.17026 11.0626 9.78526C10.9992 9.94359 11.3159 10.2286 11.4742 10.0703C12.0442 9.46859 12.7409 9.21526 13.4376 9.21526C14.1342 9.21526 14.8309 9.46859 15.4009 10.0703C15.5909 10.2603 15.8759 9.94359 15.8126 9.78526ZM14.8942 13.7436C14.8942 13.4903 14.7359 13.1736 14.3242 13.0786C13.2159 12.8886 11.6009 12.6669 9.51091 12.6669C7.42091 12.6669 5.8059 12.8886 4.69757 13.0786C4.2859 13.1736 4.12757 13.4903 4.12757 13.7436C4.12757 16.7836 4.98257 17.7336 8.49757 17.7336H10.5559C14.0392 17.7336 14.8942 16.7836 14.8942 13.7436Z" fill="#4C5359"/>
<path d="M13.6592 13.997C13.6909 13.8386 13.6592 13.6803 13.5326 13.6486C13.5326 13.6486 11.7276 13.3003 9.51089 13.3003C7.29422 13.3003 5.48922 13.6486 5.48922 13.6486C5.36255 13.6803 5.29922 13.8386 5.36255 13.997L5.64755 14.9153C5.67922 15.0736 5.83755 15.2003 5.96422 15.2003H13.0892C13.2159 15.2003 13.3426 15.0736 13.4059 14.9153L13.6592 13.997ZM9.51089 17.1003C11.0626 17.1003 13.3109 17.1003 13.2476 16.4353C13.2476 16.3086 13.2159 16.182 13.1842 16.0236C13.1526 15.8653 13.1209 15.802 12.8359 15.802H6.18589C5.93255 15.802 5.90089 15.8336 5.83755 16.0236C5.80589 16.182 5.77422 16.3086 5.77422 16.4353C5.71089 17.1003 7.95922 17.1003 9.51089 17.1003Z" fill="white"/>
<rect x="6" y="11" width="8" height="1.5" fill="black"/>
<path d="M10.9067 10.3333C10.6247 10.0333 9.74365 10 9.49695 10C9.25025 10 8.36918 10.0333 8.08723 10.3333C7.87578 10.5667 8.05199 11.1 8.58063 11.6C8.93306 11.9 9.25025 12 9.49695 12C9.74365 12 10.0961 11.9 10.4133 11.6C10.9772 11.1333 11.1181 10.5667 10.9067 10.3333Z" fill="#F7A4A4"/>
</svg>
