<svg width="181" height="57" viewBox="0 0 181 57" fill="none" xmlns="http://www.w3.org/2000/svg">
<path d="M21.2838 15.28C30.2971 15.28 34.8038 21.6533 34.8038 34.4V53.12C34.8038 54.9867 33.8171 55.92 31.8438 55.92C29.7104 55.92 28.6438 55.0133 28.6438 53.2V34.32C28.6438 29.6267 28.1104 26.1867 27.0438 24C25.9771 21.76 24.0571 20.64 21.2838 20.64C18.3504 20.64 15.9504 21.76 14.0838 24C12.2171 26.24 10.9104 29.1733 10.1638 32.8C9.68375 35.2533 9.44375 38.2667 9.44375 41.84L9.52375 53.68C9.52375 54.4267 9.25708 55.0133 8.72375 55.44C8.19042 55.8133 7.47042 56 6.56375 56C5.55042 56 4.77708 55.7867 4.24375 55.36C3.71042 54.9333 3.44375 54.3733 3.44375 53.68C3.44375 48.9333 3.33708 43.1467 3.12375 36.32C2.96375 32.3733 2.88375 28.88 2.88375 25.84C2.88375 24.5067 2.72375 23.4667 2.40375 22.72C2.13708 21.92 1.57708 20.8267 0.72375 19.44C0.510417 19.12 0.40375 18.7467 0.40375 18.32C0.40375 17.68 0.750417 17.0933 1.44375 16.56C2.19042 15.9733 2.91042 15.68 3.60375 15.68C4.29708 15.68 5.01708 16.1867 5.76375 17.2C6.35042 18.0533 6.88375 19.0933 7.36375 20.32C7.89708 21.4933 8.16375 22.6133 8.16375 23.68V24.56C9.12375 21.8933 10.6704 19.68 12.8038 17.92C14.9371 16.16 17.7638 15.28 21.2838 15.28ZM53.5806 10.72C52.194 10.72 51.0206 10.2667 50.0606 9.36C49.1006 8.4 48.6206 7.2 48.6206 5.76C48.6206 4.32 49.1006 3.14666 50.0606 2.24C51.0206 1.28 52.2473 0.799995 53.7406 0.799995C55.1806 0.799995 56.354 1.25333 57.2606 2.16C58.2206 3.06666 58.7006 4.24 58.7006 5.68C58.7006 7.12 58.194 8.32 57.1806 9.28C56.2206 10.24 55.0206 10.72 53.5806 10.72ZM52.3806 55.52C51.4206 55.52 50.6473 55.28 50.0606 54.8C49.5273 54.32 49.2606 53.68 49.2606 52.88L50.0606 18.88C50.0606 17.9733 50.3273 17.28 50.8606 16.8C51.4473 16.32 52.2206 16.08 53.1806 16.08C54.1406 16.08 54.8873 16.32 55.4206 16.8C56.0073 17.28 56.3006 18 56.3006 18.96L55.5006 52.88C55.4473 53.7333 55.1273 54.4 54.5406 54.88C54.0073 55.3067 53.2873 55.52 52.3806 55.52ZM84.1938 56.4C80.5671 56.4 77.4738 55.52 74.9138 53.76C72.3538 51.9467 70.3538 49.6533 68.9138 46.88C68.5404 46.1333 68.3538 45.6267 68.3538 45.36C68.3538 44.6133 68.6738 43.9733 69.3138 43.44C70.0071 42.8533 70.7538 42.56 71.5538 42.56C72.0871 42.56 72.4871 42.72 72.7538 43.04C73.0738 43.3067 73.5004 43.8133 74.0338 44.56C75.3671 46.5867 76.7804 48.2133 78.2738 49.44C79.7671 50.6133 81.7404 51.2 84.1938 51.2C86.4871 51.2 88.3804 50.64 89.8738 49.52C91.4204 48.4 92.1938 46.9867 92.1938 45.28C92.1938 44.0533 91.7671 43.0133 90.9138 42.16C90.1138 41.3067 89.1004 40.6133 87.8738 40.08C86.7004 39.5467 84.9938 38.88 82.7538 38.08C79.9271 37.0667 77.6338 36.16 75.8738 35.36C74.1671 34.5067 72.7004 33.3333 71.4738 31.84C70.2471 30.2933 69.6338 28.3467 69.6338 26C69.6338 23.92 70.1938 22 71.3138 20.24C72.4871 18.4267 74.1404 16.9867 76.2738 15.92C78.4071 14.8533 80.8604 14.32 83.6338 14.32C86.4071 14.32 88.8604 14.8533 90.9938 15.92C93.1271 16.9867 94.7804 18.4 95.9538 20.16C97.1271 21.92 97.7138 23.8667 97.7138 26C97.7138 27.0667 97.5004 27.84 97.0738 28.32C96.7004 28.8 96.0071 29.04 94.9938 29.04C93.9271 29.04 93.2071 28.8533 92.8338 28.48C92.5138 28.0533 92.3271 27.52 92.2738 26.88C92.0604 24.3733 91.1804 22.5333 89.6338 21.36C88.0871 20.1333 86.0871 19.52 83.6338 19.52C80.7538 19.52 78.7004 20.2133 77.4738 21.6C76.3004 22.9333 75.7138 24.3733 75.7138 25.92C75.7138 27.7333 76.4871 29.1467 78.0338 30.16C79.6338 31.12 82.0871 32.1867 85.3938 33.36C88.2204 34.3733 90.4871 35.3067 92.1938 36.16C93.9004 37.0133 95.3404 38.1867 96.5138 39.68C97.7404 41.1733 98.3538 43.04 98.3538 45.28C98.3538 48.7467 96.9938 51.4667 94.2738 53.44C91.5538 55.4133 88.1938 56.4 84.1938 56.4ZM123.1 56.4C119.473 56.4 116.38 55.52 113.82 53.76C111.26 51.9467 109.26 49.6533 107.82 46.88C107.447 46.1333 107.26 45.6267 107.26 45.36C107.26 44.6133 107.58 43.9733 108.22 43.44C108.913 42.8533 109.66 42.56 110.46 42.56C110.993 42.56 111.393 42.72 111.66 43.04C111.98 43.3067 112.407 43.8133 112.94 44.56C114.273 46.5867 115.687 48.2133 117.18 49.44C118.673 50.6133 120.647 51.2 123.1 51.2C125.393 51.2 127.287 50.64 128.78 49.52C130.327 48.4 131.1 46.9867 131.1 45.28C131.1 44.0533 130.673 43.0133 129.82 42.16C129.02 41.3067 128.007 40.6133 126.78 40.08C125.607 39.5467 123.9 38.88 121.66 38.08C118.833 37.0667 116.54 36.16 114.78 35.36C113.073 34.5067 111.607 33.3333 110.38 31.84C109.153 30.2933 108.54 28.3467 108.54 26C108.54 23.92 109.1 22 110.22 20.24C111.393 18.4267 113.047 16.9867 115.18 15.92C117.313 14.8533 119.767 14.32 122.54 14.32C125.313 14.32 127.767 14.8533 129.9 15.92C132.033 16.9867 133.687 18.4 134.86 20.16C136.033 21.92 136.62 23.8667 136.62 26C136.62 27.0667 136.407 27.84 135.98 28.32C135.607 28.8 134.913 29.04 133.9 29.04C132.833 29.04 132.113 28.8533 131.74 28.48C131.42 28.0533 131.233 27.52 131.18 26.88C130.967 24.3733 130.087 22.5333 128.54 21.36C126.993 20.1333 124.993 19.52 122.54 19.52C119.66 19.52 117.607 20.2133 116.38 21.6C115.207 22.9333 114.62 24.3733 114.62 25.92C114.62 27.7333 115.393 29.1467 116.94 30.16C118.54 31.12 120.993 32.1867 124.3 33.36C127.127 34.3733 129.393 35.3067 131.1 36.16C132.807 37.0133 134.247 38.1867 135.42 39.68C136.647 41.1733 137.26 43.04 137.26 45.28C137.26 48.7467 135.9 51.4667 133.18 53.44C130.46 55.4133 127.1 56.4 123.1 56.4ZM179.126 47.2C179.126 48.2133 179.233 49.0667 179.446 49.76C179.713 50.4533 180.033 51.12 180.406 51.76C180.78 52.3467 180.966 52.7467 180.966 52.96C180.966 53.5467 180.673 54.1067 180.086 54.64C179.5 55.1733 178.94 55.44 178.406 55.44C177.34 55.44 176.38 54.7733 175.526 53.44C174.726 52.1067 174.326 50.8267 174.326 49.6V48.48C173.206 50.9333 171.473 52.8 169.126 54.08C166.833 55.36 164.193 56 161.206 56C156.673 56 153.286 54.4533 151.046 51.36C148.806 48.2667 147.686 43.76 147.686 37.84V18.08C147.686 17.3867 147.953 16.8267 148.486 16.4C149.073 15.9733 149.793 15.76 150.646 15.76C151.553 15.76 152.3 15.9733 152.886 16.4C153.473 16.8267 153.766 17.3867 153.766 18.08V38C153.766 42.48 154.406 45.76 155.686 47.84C156.966 49.92 159.02 50.96 161.846 50.96C169.046 50.96 172.646 44.4267 172.646 31.36V18C172.646 17.1467 172.913 16.48 173.446 16C173.98 15.52 174.7 15.28 175.606 15.28C176.566 15.28 177.34 15.52 177.926 16C178.513 16.48 178.806 17.1467 178.806 18L179.126 47.2ZM150.246 10.08C149.553 10.1867 148.993 10.0267 148.566 9.6C148.193 9.17333 148.006 8.56 148.006 7.76C148.006 7.06666 148.193 6.50666 148.566 6.08C148.94 5.6 149.473 5.30666 150.166 5.2C154.326 4.50667 159.02 4.13333 164.246 4.08H168.886H175.206C176.006 4.08 176.646 4.32 177.126 4.8C177.606 5.28 177.846 5.92 177.846 6.72C177.846 8.21333 176.993 8.96 175.286 8.96C174.326 8.96 173.473 8.93333 172.726 8.88L164.006 8.8C160.326 8.8 157.206 9.01333 154.646 9.44C152.14 9.81333 150.673 10.0267 150.246 10.08Z" fill="url(#paint0_linear_213_393)"/>
<defs>
<linearGradient id="paint0_linear_213_393" x1="-27" y1="24" x2="209" y2="24" gradientUnits="userSpaceOnUse">
<stop stop-color="#A68F75"/>
</linearGradient>
</defs>
</svg>
