<svg width="22" height="22" viewBox="0 0 22 22" fill="none" xmlns="http://www.w3.org/2000/svg">
<path d="M10.0002 5C11.1048 5 12.0002 4.10457 12.0002 3C12.0002 1.89543 11.1048 1 10.0002 1C8.89567 1 8.00024 1.89543 8.00024 3C8.00024 4.10457 8.89567 5 10.0002 5Z" stroke="#A68F75" stroke-width="2" stroke-linecap="round" stroke-linejoin="round"/>
<path d="M17.0002 9C18.1048 9 19.0002 8.10457 19.0002 7C19.0002 5.89543 18.1048 5 17.0002 5C15.8957 5 15.0002 5.89543 15.0002 7C15.0002 8.10457 15.8957 9 17.0002 9Z" stroke="#A68F75" stroke-width="2" stroke-linecap="round" stroke-linejoin="round"/>
<path d="M19.0002 17C20.1048 17 21.0002 16.1046 21.0002 15C21.0002 13.8954 20.1048 13 19.0002 13C17.8957 13 17.0002 13.8954 17.0002 15C17.0002 16.1046 17.8957 17 19.0002 17Z" stroke="#A68F75" stroke-width="2" stroke-linecap="round" stroke-linejoin="round"/>
<path d="M8.00024 9C8.65685 9 9.30703 9.12933 9.91365 9.3806C10.5203 9.63188 11.0715 10.0002 11.5358 10.4645C12.0001 10.9288 12.3684 11.48 12.6196 12.0866C12.8709 12.6932 13.0002 13.3434 13.0002 14V17.5C13 18.3365 12.7001 19.1452 12.1551 19.7796C11.61 20.4141 10.8557 20.8324 10.0288 20.9587C9.20196 21.085 8.35719 20.9111 7.64753 20.4683C6.93787 20.0255 6.41025 19.3432 6.16024 18.545C5.73357 17.1683 4.83357 16.2667 3.46024 15.84C2.66242 15.5901 1.9804 15.0629 1.5376 14.3538C1.09479 13.6446 0.920452 12.8004 1.04612 11.9739C1.1718 11.1473 1.58918 10.3931 2.22274 9.84762C2.85631 9.30214 3.6642 9.00146 4.50024 9H8.00024Z" stroke="#A68F75" stroke-width="2" stroke-linecap="round" stroke-linejoin="round"/>
</svg>
