<svg width="20" height="19" viewBox="0 0 20 19" fill="none" xmlns="http://www.w3.org/2000/svg">
<path d="M18.6627 0C19.2327 4.24333 19.1377 7.66333 18.2827 9.84833L10.4293 4.02167C11.981 2.40667 15.1477 0.475 18.6627 0Z" fill="black"/>
<path d="M17.6492 9.56338L14.4192 5.35172C14.4192 5.35172 15.0209 3.04005 18.0925 1.42505C19.0109 5.09838 17.6492 9.56338 17.6492 9.56338Z" fill="#F7A4A4"/>
<path d="M16.4142 8.61326L14.4192 6.01659C14.4192 6.01659 15.2425 4.43326 17.1425 3.41992C16.0342 5.79492 16.4142 8.61326 16.4142 8.61326Z" fill="#F78D8D"/>
<path d="M0.359274 0C-0.210726 4.24333 -0.115726 7.66333 0.739274 9.84833L8.59261 3.99C7.04094 2.40667 3.87427 0.475 0.359274 0Z" fill="black"/>
<path d="M1.37258 9.56338L4.63424 5.35172C4.63424 5.35172 4.03258 3.04005 0.96091 1.42505C0.0109098 5.09838 1.37258 9.56338 1.37258 9.56338Z" fill="#F7A4A4"/>
<path d="M2.60768 8.61326L4.63434 6.01659C4.63434 6.01659 3.81101 4.43326 1.91101 3.41992C2.98768 5.79492 2.60768 8.61326 2.60768 8.61326Z" fill="#F78D8D"/>
<path d="M18.0609 8.10665L17.6809 8.61332C17.6809 8.61332 17.9026 7.97998 17.7126 7.53665L17.4276 7.75832C17.4276 7.75832 17.9659 6.26998 17.4909 5.66832C17.2059 6.55498 16.8892 6.55498 16.8892 6.55498C16.8892 6.55498 17.2692 5.88998 16.9842 5.60498C16.6676 6.11165 16.4142 5.79498 16.4142 5.63665C16.4459 5.44665 16.3509 5.16165 17.2692 5.00332C16.5409 4.55998 15.6542 4.87665 15.6542 4.87665C15.6542 4.87665 15.6859 4.40165 16.3192 4.43332C15.7176 3.92665 14.8942 4.24332 14.8942 4.24332C13.5959 3.26165 11.8542 2.69165 9.47924 2.69165C7.13591 2.69165 5.39424 3.26165 4.06424 4.24332C4.06424 4.24332 3.24091 3.95832 2.63924 4.43332C3.27257 4.40165 3.30424 4.87665 3.30424 4.87665C3.30424 4.87665 2.44924 4.55998 1.68924 5.00332C2.60757 5.12998 2.54424 5.41498 2.54424 5.63665C2.54424 5.79498 2.29091 6.11165 1.97424 5.60498C1.65757 5.88998 2.06924 6.55498 2.06924 6.55498C2.06924 6.55498 1.75257 6.55498 1.46757 5.66832C0.992574 6.30165 1.53091 7.75832 1.53091 7.75832L1.24591 7.53665C1.05591 7.97998 1.27757 8.61332 1.27757 8.61332L0.960908 8.10665C-0.432426 12.2233 4.91924 19 9.51091 19C14.1026 19 19.4542 12.2233 18.0609 8.10665Z" fill="black"/>
<path d="M11.3159 2.78658C10.7459 2.69158 10.1442 2.65991 9.51089 2.65991C8.87755 2.65991 8.27588 2.69158 7.70588 2.78658C7.92755 4.02158 8.59255 4.87658 9.51089 6.45991C10.4609 4.84491 11.0942 3.98991 11.3159 2.78658ZM14.1976 3.73658C13.5959 3.38825 12.8992 3.13491 12.1392 2.94491C12.3292 3.67325 12.7409 4.17991 13.2792 5.12991C13.6909 4.46491 13.9759 4.27491 14.1976 3.73658ZM6.88255 2.94491C6.09089 3.13491 5.42589 3.38825 4.82422 3.73658C5.04589 4.30658 5.36255 4.46491 5.74255 5.12991C6.31255 4.14825 6.69255 3.64158 6.88255 2.94491Z" fill="black"/>
<path d="M15.306 11.21C19.296 9.18337 16.4777 14.5984 17.681 17.2584C18.0293 18.05 16.4143 19 15.6543 19C12.646 19 11.886 12.9517 15.306 11.21ZM3.71601 11.21C-0.273985 9.18337 2.54435 14.5984 1.34101 17.2584C0.992681 18.05 2.60768 19 3.36768 19C6.37602 19 7.13601 12.9517 3.71601 11.21Z" fill="#363B40"/>
<path d="M10.7776 9.05666C10.5243 8.77166 9.73261 8.73999 9.51094 8.73999C9.28928 8.73999 8.49761 8.77166 8.24428 9.05666C8.05428 9.27832 8.21261 9.78499 8.68761 10.26C9.00428 10.545 9.28928 10.64 9.51094 10.64C9.73261 10.64 10.0493 10.545 10.3343 10.26C10.8409 9.78499 10.9676 9.27832 10.7776 9.05666Z" fill="#F7A4A4"/>
<path d="M11.8543 8.0117C11.8543 8.0117 11.981 6.36503 13.1526 5.85836C14.451 5.2567 15.3376 6.71336 15.5593 7.5367C15.9076 8.7717 15.4643 10.1017 15.3376 10.3867C15.2426 10.5767 14.2926 11.5584 12.1393 10.64C12.1393 10.64 11.601 9.31003 11.8543 8.0117Z" fill="white"/>
<path d="M11.8542 8.01175C11.8859 7.44175 12.0442 6.84008 12.3292 6.36508C12.4876 6.14341 12.6776 5.92175 12.8992 5.76342C12.9942 5.70008 13.1209 5.63675 13.2476 5.57341C13.3742 5.51008 13.5009 5.51008 13.6276 5.47841C14.1342 5.41508 14.6726 5.66842 15.0209 6.08008C15.4009 6.49175 15.6859 7.03008 15.8126 7.66342C15.9392 8.29675 15.9076 8.93008 15.7809 9.50008C15.7176 9.78508 15.6226 10.0701 15.5276 10.3551L15.4959 10.4501L15.4642 10.4817L15.4326 10.5134C15.4009 10.5451 15.4009 10.5451 15.4009 10.5767C15.3376 10.6401 15.3059 10.7034 15.2426 10.7351C15.1159 10.8301 15.0209 10.8934 14.8942 10.9567C14.4192 11.1784 13.9442 11.1784 13.4692 11.0834C12.9942 10.9884 12.5509 10.8301 12.1392 10.5767C12.5826 10.7034 13.0576 10.7984 13.5009 10.7984C13.9442 10.7984 14.3876 10.7351 14.7992 10.5451C14.8942 10.4817 14.9892 10.4184 15.0526 10.3551C15.0842 10.3234 15.1159 10.2917 15.1476 10.2284V10.1967L15.1792 10.1017C15.2742 9.84842 15.3376 9.59508 15.3692 9.31008C15.4642 8.77175 15.4959 8.23341 15.3692 7.72675C15.2742 7.22008 15.0209 6.74508 14.7042 6.39675C14.3876 6.01675 14.0076 5.79508 13.5959 5.82675C13.5009 5.82675 13.3742 5.85841 13.2792 5.89008C13.1842 5.92175 13.0576 5.95341 12.9626 6.01675C12.7726 6.11175 12.5826 6.27008 12.4242 6.46008C12.1709 6.93508 11.9809 7.44175 11.8542 8.01175Z" fill="#363B40"/>
<path d="M13.4059 10.1967C13.7557 10.1967 14.0392 9.48781 14.0392 8.61336C14.0392 7.73891 13.7557 7.03003 13.4059 7.03003C13.0561 7.03003 12.7726 7.73891 12.7726 8.61336C12.7726 9.48781 13.0561 10.1967 13.4059 10.1967Z" fill="#4C5359"/>
<path d="M7.16762 8.0117C7.16762 8.0117 7.04095 6.36503 5.86929 5.85836C4.57095 5.2567 3.68429 6.71336 3.46262 7.5367C3.11429 8.7717 3.55762 10.1017 3.68429 10.3867C3.77929 10.5767 4.72929 11.5584 6.88262 10.64C6.88262 10.64 7.42095 9.31003 7.16762 8.0117Z" fill="white"/>
<path d="M7.16761 8.01161C7.04094 7.44161 6.85094 6.93494 6.53428 6.55494C6.37594 6.36494 6.18594 6.20661 5.99594 6.11161C5.90094 6.04827 5.80594 6.01661 5.67928 5.98494C5.58428 5.95327 5.48928 5.95327 5.36261 5.92161C4.95094 5.92161 4.53928 6.14327 4.25428 6.49161C3.93761 6.83994 3.71594 7.31494 3.58928 7.82161C3.49428 8.32827 3.49428 8.86661 3.58928 9.40494C3.62094 9.65827 3.71594 9.94327 3.77928 10.1966L3.81094 10.2916V10.3233C3.84261 10.3549 3.87428 10.3866 3.90594 10.4499C4.00094 10.5133 4.06428 10.5766 4.15928 10.6399C4.53928 10.8616 5.01428 10.9249 5.45761 10.8933C5.90094 10.8933 6.37594 10.7983 6.81928 10.6716C6.40761 10.9249 5.93261 11.0833 5.48928 11.1783C5.01428 11.2416 4.53928 11.2416 4.06428 11.0516C3.93761 10.9883 3.84261 10.9249 3.71594 10.8299C3.65261 10.7983 3.62094 10.7349 3.55761 10.6716C3.55761 10.6399 3.52594 10.6399 3.52594 10.6083L3.49428 10.5766L3.46261 10.5449L3.43094 10.4499C3.33594 10.1649 3.24094 9.87994 3.17761 9.59494C3.05094 8.99327 3.01928 8.35994 3.14594 7.75827C3.27261 7.12494 3.55761 6.61827 3.93761 6.17494C4.31761 5.76327 4.82428 5.47827 5.33094 5.57327C5.45761 5.60494 5.58428 5.60494 5.71094 5.66827C5.83761 5.69994 5.93261 5.76327 6.05928 5.85827C6.28094 6.01661 6.47094 6.20661 6.62928 6.45994C6.97761 6.83994 7.13594 7.44161 7.16761 8.01161Z" fill="#363B40"/>
<path d="M5.616 10.1967C5.96578 10.1967 6.24933 9.48781 6.24933 8.61336C6.24933 7.73891 5.96578 7.03003 5.616 7.03003C5.26622 7.03003 4.98267 7.73891 4.98267 8.61336C4.98267 9.48781 5.26622 10.1967 5.616 10.1967Z" fill="#4C5359"/>
<path d="M12.0443 14.8835C12.0443 16.8151 10.9043 18.3668 9.51099 18.3668C8.11766 18.3668 6.97766 16.8151 6.97766 14.8835C6.97766 12.9518 8.11766 11.4001 9.51099 11.4001C10.9043 11.4001 12.0443 12.9518 12.0443 14.8835Z" fill="#4C5359"/>
<path d="M10.1125 13.5217C9.92254 13.5217 9.63754 13.7117 9.73254 14.1867C9.79587 14.4401 10.1125 14.7251 10.1125 15.1051C10.1125 15.8967 8.87754 15.8967 8.87754 15.1051C8.87754 14.7251 9.22587 14.4084 9.25754 14.1867C9.35254 13.7117 9.06754 13.5217 8.87754 13.5217C8.37087 13.5217 7.51587 14.0917 7.51587 15.0417C7.51587 16.1184 8.40254 16.9734 9.44754 16.9734C10.5242 16.9734 11.4109 16.0867 11.4109 15.0417C11.4425 14.0917 10.6192 13.5217 10.1125 13.5217Z" fill="#363B40"/>
<path d="M9.51092 16.5618C8.33925 16.5618 8.02258 16.8784 8.02258 16.8784C8.33925 17.5118 8.87758 17.9234 9.51092 17.9234C10.1759 17.9234 10.7142 17.5118 11.0309 16.8784C10.9992 16.8784 10.6826 16.5618 9.51092 16.5618Z" fill="#FF717F"/>
</svg>
