<svg width="20" height="20" viewBox="0 0 20 20" fill="none" xmlns="http://www.w3.org/2000/svg">
<g clip-path="url(#clip0_13_358)">
<path d="M19.0313 0.625C19.5938 4.8125 19.5 8.1875 18.6563 10.3438L10.9062 4.59375C12.4375 3 15.5625 1.09375 19.0313 0.625Z" fill="black"/>
<path d="M18.0313 10.0625L14.8438 5.90625C14.8438 5.90625 15.4375 3.625 18.4687 2.03125C19.375 5.65625 18.0313 10.0625 18.0313 10.0625Z" fill="#F7A4A4"/>
<path d="M16.8125 9.125L14.8438 6.5625C14.8438 6.5625 15.6562 5 17.5312 4C16.4375 6.34375 16.8125 9.125 16.8125 9.125Z" fill="#F78D8D"/>
<path d="M0.968744 0.625C0.406244 4.8125 0.499994 8.1875 1.34374 10.3438L9.09374 4.5625C7.56249 3 4.43749 1.09375 0.968744 0.625Z" fill="black"/>
<path d="M1.96875 10.0625L5.1875 5.90625C5.1875 5.90625 4.59375 3.625 1.5625 2.03125C0.624997 5.65625 1.96875 10.0625 1.96875 10.0625Z" fill="#F7A4A4"/>
<path d="M3.1875 9.125L5.1875 6.5625C5.1875 6.5625 4.375 5 2.5 4C3.5625 6.34375 3.1875 9.125 3.1875 9.125Z" fill="#F78D8D"/>
<path d="M18.1875 15.875C18.4375 15.5938 18.625 15.375 18.7188 15.1875C19.2188 14.375 19.375 13.5312 19.375 13.5312L18.75 13.6562C18.75 13.6562 19.4688 12.875 19.2812 11.2188L18.6562 11.875C18.6562 11.875 19.25 10.1875 18.75 8.625L18.0625 9.125C18.0625 9.125 18.2812 8.5 18.0938 8.0625L17.8125 8.28125C17.8125 8.28125 18.3438 6.8125 17.875 6.21875C17.5938 7.09375 17.2812 7.09375 17.2812 7.09375C17.2812 7.09375 17.6562 6.4375 17.375 6.15625C17.0625 6.65625 16.8125 6.34375 16.8125 6.1875C16.8438 6 16.75 5.71875 17.6562 5.5625C16.9375 5.125 16.0625 5.4375 16.0625 5.4375C16.0625 5.4375 16.0938 4.96875 16.7188 5C16.125 4.5 15.3125 4.8125 15.3125 4.8125C14.0312 3.84375 12.3125 3.28125 9.96875 3.28125C7.65625 3.28125 5.9375 3.84375 4.625 4.8125C4.625 4.8125 3.8125 4.53125 3.21875 5C3.84375 4.96875 3.875 5.4375 3.875 5.4375C3.875 5.4375 3.03125 5.125 2.28125 5.5625C3.1875 5.6875 3.125 5.96875 3.125 6.1875C3.125 6.34375 2.875 6.65625 2.5625 6.15625C2.25 6.4375 2.65625 7.09375 2.65625 7.09375C2.65625 7.09375 2.34375 7.09375 2.0625 6.21875C1.59375 6.84375 2.125 8.28125 2.125 8.28125L1.84375 8.0625C1.65625 8.5 1.875 9.125 1.875 9.125L1.25 8.625C0.71875 10.1875 1.34375 11.875 1.34375 11.875L0.75 11.2188C0.53125 12.875 1.25 13.6562 1.25 13.6562L0.625 13.5312C0.625 13.5312 0.78125 14.375 1.28125 15.1875C1.34375 15.3438 1.53125 15.5938 1.8125 15.875L1.84375 15.9062C3.125 17.1875 6.28125 19.375 10 19.375C13.7188 19.375 16.875 17.1875 18.1562 15.9062C18.1562 15.875 18.1875 15.875 18.1875 15.875Z" fill="black"/>
<path d="M11.7813 3.375C11.2188 3.28125 10.625 3.25 10 3.25C9.375 3.25 8.78125 3.28125 8.21875 3.375C8.4375 4.59375 9.09375 5.4375 10 7C10.9375 5.40625 11.5625 4.5625 11.7813 3.375ZM14.625 4.3125C14.0312 3.96875 13.3438 3.71875 12.5938 3.53125C12.7812 4.25 13.1875 4.75 13.7188 5.6875C14.125 5.03125 14.4062 4.84375 14.625 4.3125ZM7.40625 3.53125C6.625 3.71875 5.96875 3.96875 5.375 4.3125C5.59375 4.875 5.90625 5.03125 6.28125 5.6875C6.84375 4.71875 7.21875 4.21875 7.40625 3.53125Z" fill="black"/>
<path d="M11.25 11.875C11 11.5938 10.2188 11.5625 10 11.5625C9.78127 11.5625 9.00002 11.5938 8.75002 11.875C8.56252 12.0938 8.71877 12.5937 9.18752 13.0625C9.50002 13.3437 9.78127 13.4375 10 13.4375C10.2188 13.4375 10.5313 13.3437 10.8125 13.0625C11.3125 12.625 11.4375 12.0938 11.25 11.875Z" fill="#F7A4A4"/>
<path d="M7.59372 9.62512C7.59372 9.62512 7.43747 8.18762 6.18747 7.75012C4.78122 7.21887 3.81247 8.50012 3.53122 9.21887C3.15622 10.2814 3.62497 11.4376 3.78122 11.7189C3.87497 11.9064 4.93747 12.7189 7.28122 11.9376C7.28122 11.9376 7.87497 10.7501 7.59372 9.62512Z" fill="white"/>
<path d="M7.59373 9.62508C7.46873 9.12508 7.24999 8.68759 6.87499 8.34384C6.71874 8.18759 6.49999 8.03133 6.28124 7.96883C6.18749 7.93758 6.06249 7.87509 5.93749 7.87509C5.87498 7.84384 5.74999 7.81258 5.62499 7.81258C5.15624 7.81258 4.74999 8.00008 4.40624 8.31258C4.06249 8.62508 3.81249 9.03133 3.68749 9.46883C3.56249 9.90633 3.59374 10.4063 3.68749 10.8438C3.74999 11.0626 3.81249 11.3126 3.90624 11.5313L3.93749 11.5938L3.96874 11.6251C3.99999 11.6563 4.03124 11.6876 4.09374 11.7188C4.18749 11.7813 4.28124 11.8438 4.37499 11.8751C4.81249 12.0626 5.28123 12.1251 5.78124 12.1251C6.28124 12.1251 6.78123 12.0313 7.28123 11.9063C6.81248 12.1251 6.31249 12.2501 5.81249 12.3438C5.31249 12.4063 4.74999 12.4063 4.24999 12.2188C4.12499 12.1876 3.99998 12.1251 3.87498 12.0313C3.81248 12.0001 3.74999 11.9376 3.68749 11.9063C3.65624 11.9063 3.65624 11.8751 3.62499 11.8438L3.59374 11.8126L3.56248 11.7813L3.49999 11.6876C3.37499 11.4376 3.28124 11.1876 3.21874 10.9376C3.09374 10.4376 3.06249 9.87508 3.18749 9.34383C3.34374 8.81258 3.65624 8.34383 4.06249 7.96883C4.46874 7.62508 5.03123 7.37508 5.59373 7.43758C5.71873 7.46883 5.87499 7.46883 5.99999 7.53133C6.12499 7.56258 6.24998 7.62508 6.37498 7.68758C6.62498 7.81258 6.81248 8.00009 6.99998 8.18759C7.37499 8.62509 7.56248 9.12508 7.59373 9.62508Z" fill="#B2B6B8"/>
<path d="M12.4063 9.62512C12.4063 9.62512 12.5625 8.18762 13.8125 7.75012C15.2188 7.21887 16.1875 8.50012 16.4688 9.21887C16.8438 10.2814 16.375 11.4376 16.2188 11.7189C16.125 11.9064 15.0625 12.7189 12.7188 11.9376C12.7188 11.9376 12.125 10.7501 12.4063 9.62512Z" fill="white"/>
<path d="M12.4062 9.62508C12.4375 9.12508 12.625 8.62509 12.9375 8.18759C13.0938 7.96884 13.3125 7.81259 13.5625 7.68758C13.6875 7.62508 13.8125 7.56258 13.9375 7.53133C14.0625 7.50008 14.2188 7.46883 14.3438 7.43758C14.9063 7.37508 15.4687 7.62508 15.875 7.96883C16.2812 8.34383 16.5937 8.78133 16.75 9.34383C16.875 9.87508 16.8438 10.4376 16.7188 10.9688C16.6562 11.2188 16.5625 11.4688 16.4375 11.7188L16.375 11.8126L16.3437 11.8438V11.8751L16.2812 11.9376C16.2187 12.0001 16.1562 12.0313 16.0937 12.0626L15.7187 12.2501C15.1875 12.4376 14.6562 12.4376 14.1562 12.3751C13.6562 12.2813 13.1562 12.1563 12.6875 11.9376C13.1875 12.0313 13.6875 12.1251 14.1875 12.1563C14.6875 12.1563 15.1875 12.0938 15.5938 11.9063C15.6875 11.8751 15.8125 11.8126 15.875 11.7501C15.9062 11.7188 15.9688 11.6876 16 11.6563L16.0312 11.6251L16.0625 11.5626C16.1563 11.3438 16.2187 11.1251 16.2812 10.8751C16.375 10.4063 16.4062 9.93758 16.2812 9.50008C16.1562 9.06258 15.9062 8.65634 15.5625 8.34384C15.2187 8.03134 14.8125 7.84384 14.3438 7.84384C14.2188 7.84384 14.125 7.87509 14 7.87509C13.875 7.90634 13.7812 7.93758 13.6562 7.96883C13.4375 8.06258 13.25 8.18759 13.0625 8.34384C12.75 8.68759 12.5312 9.15633 12.4062 9.62508Z" fill="#B2B6B8"/>
<path d="M13.75 11.5625C14.4404 11.5625 15 10.9329 15 10.1562C15 9.3796 14.4404 8.75 13.75 8.75C13.0596 8.75 12.5 9.3796 12.5 10.1562C12.5 10.9329 13.0596 11.5625 13.75 11.5625Z" fill="#4C5359"/>
<path d="M6.25 11.5625C6.94036 11.5625 7.5 10.9329 7.5 10.1562C7.5 9.3796 6.94036 8.75 6.25 8.75C5.55964 8.75 5 9.3796 5 10.1562C5 10.9329 5.55964 11.5625 6.25 11.5625Z" fill="#4C5359"/>
<path d="M14.0625 14.5938C14.0625 14.4063 13.9375 14.1562 13.625 14.0937C12.8125 13.9062 11.5625 13.75 10 13.75C8.4375 13.75 7.1875 13.9062 6.375 14.0625C6.0625 14.125 5.9375 14.375 5.9375 14.5625C5.9375 16.3437 7.28125 18.125 10 18.125C12.7188 18.125 14.0625 16.3438 14.0625 14.5938Z" fill="#4C5359"/>
<path d="M7.96875 17.0625C8.5625 17.3437 9.21875 17.5 10 17.5C10.7812 17.5 11.4375 17.3437 12.0312 17.0625C11.4688 16.75 10.7812 16.5625 10 16.5625C9.21875 16.5625 8.53125 16.75 7.96875 17.0625Z" fill="#FF717F"/>
</g>
<defs>
<clipPath id="clip0_13_358">
<rect width="20" height="20" fill="white"/>
</clipPath>
</defs>
</svg>
